<?xml version="1.0" encoding="UTF-8" standalone="no"?>
<!DOCTYPE svg PUBLIC "-//W3C//DTD SVG 1.1//EN"
 "http://www.w3.org/Graphics/SVG/1.1/DTD/svg11.dtd">
<!-- Generated by graphviz version 15.1.0 (20260618.0150)
 -->
<!-- Title: MethodFlowchart Pages: 1 -->
<svg width="381pt" height="455pt"
 viewBox="0.00 0.00 381.00 455.00" xmlns="http://www.w3.org/2000/svg" xmlns:xlink="http://www.w3.org/1999/xlink">
<g id="graph0" class="graph" transform="scale(1 1) rotate(0) translate(4 451.05)">
<title>MethodFlowchart</title>
<polygon fill="white" stroke="none" points="-4,4 -4,-451.05 377.2,-451.05 377.2,4 -4,4"/>
<text xml:space="preserve" text-anchor="middle" x="186.6" y="-6.85" font-family="Arial" font-size="12.00">图1</text>
<!-- start -->
<g id="node1" class="node">
<title>start</title>
<ellipse fill="none" stroke="black" stroke-width="0.6" cx="186.2" cy="-429.05" rx="64.8" ry="18"/>
<text xml:space="preserve" text-anchor="middle" x="186.2" y="-422.88" font-family="Arial" font-size="14.00">开始</text>
</g>
<!-- detect -->
<g id="node2" class="node">
<title>detect</title>
<polygon fill="none" stroke="black" stroke-width="0.6" points="301.4,-375.05 71,-375.05 71,-324.65 301.4,-324.65 301.4,-375.05"/>
<text xml:space="preserve" text-anchor="middle" x="186.2" y="-343.68" font-family="Arial" font-size="14.00">检测各电芯电压</text>
</g>
<!-- start&#45;&gt;detect -->
<g id="edge1" class="edge">
<title>start&#45;&gt;detect</title>
<path fill="none" stroke="black" stroke-width="0.6" d="M186.2,-411.08C186.2,-411.08 186.2,-386.16 186.2,-386.16"/>
<polygon fill="black" stroke="black" stroke-width="0.6" points="189.7,-386.16 186.2,-376.16 182.7,-386.16 189.7,-386.16"/>
</g>
<!-- decide -->
<g id="node3" class="node">
<title>decide</title>
<polygon fill="none" stroke="black" stroke-width="0.6" points="186.2,-288.65 78.2,-234.65 186.2,-180.65 294.2,-234.65 186.2,-288.65"/>
<text xml:space="preserve" text-anchor="middle" x="186.2" y="-236.35" font-family="Arial" font-size="14.00">是否需</text>
<text xml:space="preserve" text-anchor="middle" x="186.2" y="-222.1" font-family="Arial" font-size="14.00">要均衡?</text>
</g>
<!-- detect&#45;&gt;decide -->
<g id="edge2" class="edge">
<title>detect&#45;&gt;decide</title>
<path fill="none" stroke="black" stroke-width="0.6" d="M186.2,-324.57C186.2,-324.57 186.2,-299.6 186.2,-299.6"/>
<polygon fill="black" stroke="black" stroke-width="0.6" points="189.7,-299.6 186.2,-289.6 182.7,-299.6 189.7,-299.6"/>
</g>
<!-- balance -->
<g id="node4" class="node">
<title>balance</title>
<polygon fill="none" stroke="black" stroke-width="0.6" points="230.4,-144.65 0,-144.65 0,-94.25 230.4,-94.25 230.4,-144.65"/>
<text xml:space="preserve" text-anchor="middle" x="115.2" y="-113.28" font-family="Arial" font-size="14.00">执行均衡策略</text>
</g>
<!-- decide&#45;&gt;balance -->
<g id="edge3" class="edge">
<title>decide&#45;&gt;balance</title>
<path fill="none" stroke="black" stroke-width="0.6" d="M154.3,-196.29C154.3,-196.29 154.3,-155.51 154.3,-155.51"/>
<polygon fill="black" stroke="black" stroke-width="0.6" points="157.8,-155.51 154.3,-145.51 150.8,-155.51 157.8,-155.51"/>
<text xml:space="preserve" text-anchor="middle" x="146.42" y="-165.45" font-family="Arial" font-size="11.00">是</text>
</g>
<!-- end -->
<g id="node5" class="node">
<title>end</title>
<ellipse fill="none" stroke="black" stroke-width="0.6" cx="186.2" cy="-40.25" rx="64.8" ry="18"/>
<text xml:space="preserve" text-anchor="middle" x="186.2" y="-34.08" font-family="Arial" font-size="14.00">结束</text>
</g>
<!-- decide&#45;&gt;end -->
<g id="edge5" class="edge">
<title>decide&#45;&gt;end</title>
<path fill="none" stroke="black" stroke-width="0.6" d="M240.7,-207.62C240.7,-207.62 240.7,-60.77 240.7,-60.77"/>
<polygon fill="black" stroke="black" stroke-width="0.6" points="244.2,-60.77 240.7,-50.77 237.2,-60.77 244.2,-60.77"/>
<text xml:space="preserve" text-anchor="middle" x="248.57" y="-135" font-family="Arial" font-size="11.00">否</text>
</g>
<!-- balance&#45;&gt;end -->
<g id="edge4" class="edge">
<title>balance&#45;&gt;end</title>
<path fill="none" stroke="black" stroke-width="0.6" d="M175.9,-93.95C175.9,-93.95 175.9,-68.84 175.9,-68.84"/>
<polygon fill="black" stroke="black" stroke-width="0.6" points="179.4,-68.84 175.9,-58.84 172.4,-68.84 179.4,-68.84"/>
</g>
<!-- r10 -->
<g id="node6" class="node">
<title>r10</title>
<text xml:space="preserve" text-anchor="middle" x="296.2" y="-425.35" font-family="Arial" font-size="11.00">10</text>
</g>
<!-- r10&#45;&gt;start -->
<g id="edge6" class="edge">
<title>r10&#45;&gt;start</title>
<path fill="none" stroke="black" stroke-width="0.35" stroke-dasharray="1,5" d="M269.29,-429.25C263.69,-429.25 257.57,-429.25 251.26,-429.25"/>
</g>
<!-- r20 -->
<g id="node7" class="node">
<title>r20</title>
<text xml:space="preserve" text-anchor="middle" x="346.2" y="-346.15" font-family="Arial" font-size="11.00">20</text>
</g>
<!-- r20&#45;&gt;detect -->
<g id="edge7" class="edge">
<title>r20&#45;&gt;detect</title>
<path fill="none" stroke="black" stroke-width="0.35" stroke-dasharray="1,5" d="M319.42,-350.25C313.99,-350.25 307.97,-350.25 301.57,-350.25"/>
</g>
<!-- r30 -->
<g id="node8" class="node">
<title>r30</title>
<text xml:space="preserve" text-anchor="middle" x="339.2" y="-230.95" font-family="Arial" font-size="11.00">30</text>
</g>
<!-- r30&#45;&gt;decide -->
<g id="edge8" class="edge">
<title>r30&#45;&gt;decide</title>
<path fill="none" stroke="black" stroke-width="0.35" stroke-dasharray="1,5" d="M312.55,-234.25C306.9,-234.25 300.61,-234.25 293.93,-234.25"/>
</g>
<!-- r40 -->
<g id="node9" class="node">
<title>r40</title>
<text xml:space="preserve" text-anchor="middle" x="313.2" y="-115.75" font-family="Arial" font-size="11.00">40</text>
</g>
<!-- r40&#45;&gt;balance -->
<g id="edge9" class="edge">
<title>r40&#45;&gt;balance</title>
<path fill="none" stroke="black" stroke-width="0.35" stroke-dasharray="1,5" d="M286.5,-119.25C271.4,-119.25 251.38,-119.25 230.35,-119.25"/>
</g>
<!-- r50 -->
<g id="node10" class="node">
<title>r50</title>
<text xml:space="preserve" text-anchor="middle" x="296.2" y="-36.55" font-family="Arial" font-size="11.00">50</text>
</g>
<!-- r50&#45;&gt;end -->
<g id="edge10" class="edge">
<title>r50&#45;&gt;end</title>
<path fill="none" stroke="black" stroke-width="0.35" stroke-dasharray="1,5" d="M269.29,-40.25C263.69,-40.25 257.57,-40.25 251.26,-40.25"/>
</g>
</g>
</svg>
