<?xml version="1.0" encoding="UTF-8" standalone="no"?>
<!DOCTYPE svg PUBLIC "-//W3C//DTD SVG 1.1//EN"
 "http://www.w3.org/Graphics/SVG/1.1/DTD/svg11.dtd">
<!-- Generated by graphviz version 15.1.0 (20260618.0150)
 -->
<!-- Title: ProcessWithErrorHandling Pages: 1 -->
<svg width="1036pt" height="773pt"
 viewBox="0.00 0.00 1036.00 773.00" xmlns="http://www.w3.org/2000/svg" xmlns:xlink="http://www.w3.org/1999/xlink">
<g id="graph0" class="graph" transform="scale(1 1) rotate(0) translate(4 768.85)">
<title>ProcessWithErrorHandling</title>
<polygon fill="white" stroke="none" points="-4,4 -4,-768.85 1032.4,-768.85 1032.4,4 -4,4"/>
<text xml:space="preserve" text-anchor="middle" x="514.2" y="-6.85" font-family="Arial" font-size="12.00">图1</text>
<!-- start -->
<g id="node1" class="node">
<title>start</title>
<ellipse fill="none" stroke="black" stroke-width="0.6" cx="302.2" cy="-739.65" rx="64.8" ry="18"/>
<text xml:space="preserve" text-anchor="middle" x="302.2" y="-733.48" font-family="Arial" font-size="14.00">开始</text>
</g>
<!-- acquire -->
<g id="node2" class="node">
<title>acquire</title>
<polygon fill="none" stroke="black" stroke-width="0.6" points="417.4,-649.45 187,-649.45 187,-599.05 417.4,-599.05 417.4,-649.45"/>
<text xml:space="preserve" text-anchor="middle" x="302.2" y="-618.08" font-family="Arial" font-size="14.00">采集传感器数据</text>
</g>
<!-- start&#45;&gt;acquire -->
<g id="edge1" class="edge">
<title>start&#45;&gt;acquire</title>
<path fill="none" stroke="black" stroke-width="0.6" d="M302.2,-721.36C302.2,-721.36 302.2,-660.65 302.2,-660.65"/>
<polygon fill="black" stroke="black" stroke-width="0.6" points="305.7,-660.65 302.2,-650.65 298.7,-660.65 305.7,-660.65"/>
</g>
<!-- valid -->
<g id="node5" class="node">
<title>valid</title>
<polygon fill="none" stroke="black" stroke-width="0.6" points="221.2,-534.05 113.2,-480.05 221.2,-426.05 329.2,-480.05 221.2,-534.05"/>
<text xml:space="preserve" text-anchor="middle" x="221.2" y="-481.75" font-family="Arial" font-size="14.00">数据</text>
<text xml:space="preserve" text-anchor="middle" x="221.2" y="-467.5" font-family="Arial" font-size="14.00">有效?</text>
</g>
<!-- acquire&#45;&gt;valid -->
<g id="edge2" class="edge">
<title>acquire&#45;&gt;valid</title>
<path fill="none" stroke="black" stroke-width="0.6" d="M258.1,-598.8C258.1,-598.8 258.1,-526.7 258.1,-526.7"/>
<polygon fill="black" stroke="black" stroke-width="0.6" points="261.6,-526.7 258.1,-516.7 254.6,-526.7 261.6,-526.7"/>
</g>
<!-- process -->
<g id="node3" class="node">
<title>process</title>
<polygon fill="none" stroke="black" stroke-width="0.6" points="237.4,-332.25 7,-332.25 7,-281.85 237.4,-281.85 237.4,-332.25"/>
<text xml:space="preserve" text-anchor="middle" x="122.2" y="-300.88" font-family="Arial" font-size="14.00">数据预处理与滤波</text>
</g>
<!-- transmit -->
<g id="node4" class="node">
<title>transmit</title>
<polygon fill="none" stroke="black" stroke-width="0.6" points="230.4,-188.05 0,-188.05 0,-137.65 230.4,-137.65 230.4,-188.05"/>
<text xml:space="preserve" text-anchor="middle" x="115.2" y="-156.67" font-family="Arial" font-size="14.00">发送数据到上位机</text>
</g>
<!-- process&#45;&gt;transmit -->
<g id="edge4" class="edge">
<title>process&#45;&gt;transmit</title>
<path fill="none" stroke="black" stroke-width="0.6" d="M118.7,-281.6C118.7,-281.6 118.7,-198.95 118.7,-198.95"/>
<polygon fill="black" stroke="black" stroke-width="0.6" points="122.2,-198.95 118.7,-188.95 115.2,-198.95 122.2,-198.95"/>
</g>
<!-- success -->
<g id="node9" class="node">
<title>success</title>
<ellipse fill="none" stroke="black" stroke-width="0.6" cx="115.2" cy="-47.45" rx="64.8" ry="18"/>
<text xml:space="preserve" text-anchor="middle" x="115.2" y="-41.28" font-family="Arial" font-size="14.00">完成</text>
</g>
<!-- transmit&#45;&gt;success -->
<g id="edge5" class="edge">
<title>transmit&#45;&gt;success</title>
<path fill="none" stroke="black" stroke-width="0.6" d="M115.2,-137.52C115.2,-137.52 115.2,-76.46 115.2,-76.46"/>
<polygon fill="black" stroke="black" stroke-width="0.6" points="118.7,-76.46 115.2,-66.46 111.7,-76.46 118.7,-76.46"/>
</g>
<!-- valid&#45;&gt;process -->
<g id="edge3" class="edge">
<title>valid&#45;&gt;process</title>
<path fill="none" stroke="black" stroke-width="0.6" d="M175.3,-448.72C175.3,-448.72 175.3,-343.43 175.3,-343.43"/>
<polygon fill="black" stroke="black" stroke-width="0.6" points="178.8,-343.43 175.3,-333.43 171.8,-343.43 178.8,-343.43"/>
<text xml:space="preserve" text-anchor="middle" x="167.42" y="-396.87" font-family="Arial" font-size="11.00">是</text>
</g>
<!-- retry -->
<g id="node6" class="node">
<title>retry</title>
<polygon fill="none" stroke="black" stroke-width="0.6" points="384.2,-361.05 276.2,-307.05 384.2,-253.05 492.2,-307.05 384.2,-361.05"/>
<text xml:space="preserve" text-anchor="middle" x="384.2" y="-308.75" font-family="Arial" font-size="14.00">重试次数</text>
<text xml:space="preserve" text-anchor="middle" x="384.2" y="-294.5" font-family="Arial" font-size="14.00">&lt; 3?</text>
</g>
<!-- valid&#45;&gt;retry -->
<g id="edge6" class="edge">
<title>valid&#45;&gt;retry</title>
<path fill="none" stroke="black" stroke-width="0.6" d="M302.7,-466.47C302.7,-466.47 302.7,-331.47 302.7,-331.47"/>
<polygon fill="black" stroke="black" stroke-width="0.6" points="306.2,-331.47 302.7,-321.47 299.2,-331.47 306.2,-331.47"/>
<text xml:space="preserve" text-anchor="middle" x="294.82" y="-399.77" font-family="Arial" font-size="11.00">否</text>
</g>
<!-- retry&#45;&gt;acquire -->
<g id="edge7" class="edge">
<title>retry&#45;&gt;acquire</title>
<path fill="none" stroke="black" stroke-width="0.6" d="M373.3,-355.92C373.3,-355.92 373.3,-588.06 373.3,-588.06"/>
<polygon fill="black" stroke="black" stroke-width="0.6" points="369.8,-588.06 373.3,-598.06 376.8,-588.06 369.8,-588.06"/>
<text xml:space="preserve" text-anchor="middle" x="402.17" y="-475.04" font-family="Arial" font-size="11.00">是 (重试)</text>
</g>
<!-- logerr -->
<g id="node7" class="node">
<title>logerr</title>
<polygon fill="none" stroke="black" stroke-width="0.6" points="760.4,-332.25 530,-332.25 530,-281.85 760.4,-281.85 760.4,-332.25"/>
<text xml:space="preserve" text-anchor="middle" x="645.2" y="-300.88" font-family="Arial" font-size="14.00">记录错误日志</text>
</g>
<!-- retry&#45;&gt;logerr -->
<g id="edge8" class="edge">
<title>retry&#45;&gt;logerr</title>
<path fill="none" stroke="black" stroke-width="0.6" d="M492.24,-307.25C492.24,-307.25 519.15,-307.25 519.15,-307.25"/>
<polygon fill="black" stroke="black" stroke-width="0.6" points="519.15,-310.75 529.15,-307.25 519.15,-303.75 519.15,-310.75"/>
<text xml:space="preserve" text-anchor="middle" x="505.7" y="-296.8" font-family="Arial" font-size="11.00">否 (超限)</text>
</g>
<!-- abort -->
<g id="node8" class="node">
<title>abort</title>
<polygon fill="none" stroke="black" stroke-width="0.6" points="762.4,-188.05 532,-188.05 532,-137.65 762.4,-137.65 762.4,-188.05"/>
<text xml:space="preserve" text-anchor="middle" x="647.2" y="-156.67" font-family="Arial" font-size="14.00">中止并报警</text>
</g>
<!-- logerr&#45;&gt;abort -->
<g id="edge9" class="edge">
<title>logerr&#45;&gt;abort</title>
<path fill="none" stroke="black" stroke-width="0.6" d="M646.2,-281.6C646.2,-281.6 646.2,-198.95 646.2,-198.95"/>
<polygon fill="black" stroke="black" stroke-width="0.6" points="649.7,-198.95 646.2,-188.95 642.7,-198.95 649.7,-198.95"/>
</g>
<!-- failure -->
<g id="node10" class="node">
<title>failure</title>
<ellipse fill="none" stroke="black" stroke-width="0.6" cx="647.2" cy="-47.45" rx="64.8" ry="18"/>
<text xml:space="preserve" text-anchor="middle" x="647.2" y="-41.28" font-family="Arial" font-size="14.00">异常终止</text>
</g>
<!-- abort&#45;&gt;failure -->
<g id="edge10" class="edge">
<title>abort&#45;&gt;failure</title>
<path fill="none" stroke="black" stroke-width="0.6" d="M647.2,-137.52C647.2,-137.52 647.2,-76.46 647.2,-76.46"/>
<polygon fill="black" stroke="black" stroke-width="0.6" points="650.7,-76.46 647.2,-66.46 643.7,-76.46 650.7,-76.46"/>
</g>
<!-- r10 -->
<g id="node11" class="node">
<title>r10</title>
<text xml:space="preserve" text-anchor="middle" x="518.2" y="-736.15" font-family="Arial" font-size="10.00">10</text>
</g>
<!-- r10&#45;&gt;start -->
<g id="edge11" class="edge">
<title>r10&#45;&gt;start</title>
<path fill="none" stroke="black" stroke-width="0.35" stroke-dasharray="1,5" d="M403.24,-739.25C390.85,-739.25 378.58,-739.25 367.09,-739.25"/>
</g>
<!-- r20 -->
<g id="node12" class="node">
<title>r20</title>
<text xml:space="preserve" text-anchor="middle" x="568.2" y="-620.75" font-family="Arial" font-size="10.00">20</text>
</g>
<!-- r20&#45;&gt;acquire -->
<g id="edge12" class="edge">
<title>r20&#45;&gt;acquire</title>
<path fill="none" stroke="black" stroke-width="0.35" stroke-dasharray="1,5" d="M453.08,-624.25C441.28,-624.25 429.3,-624.25 417.5,-624.25"/>
</g>
<!-- r30 -->
<g id="node13" class="node">
<title>r30</title>
<text xml:space="preserve" text-anchor="middle" x="554.2" y="-476.55" font-family="Arial" font-size="10.00">30</text>
</g>
<!-- r30&#45;&gt;valid -->
<g id="edge13" class="edge">
<title>r30&#45;&gt;valid</title>
<path fill="none" stroke="black" stroke-width="0.35" stroke-dasharray="1,5" d="M439.13,-480.25C403.51,-480.25 364.4,-480.25 329.27,-480.25"/>
</g>
<!-- r40 -->
<g id="node14" class="node">
<title>r40</title>
<text xml:space="preserve" text-anchor="middle" x="911.2" y="-303.55" font-family="Arial" font-size="10.00">40</text>
</g>
<!-- r40&#45;&gt;process -->
<g id="edge14" class="edge">
<title>r40&#45;&gt;process</title>
<path fill="none" stroke="black" stroke-width="0.35" stroke-dasharray="1,5" d="M912.2,-281.94C912.2,-256.31 912.2,-220.25 912.2,-220.25 912.2,-220.25 233.9,-220.25 233.9,-220.25 233.9,-220.25 233.9,-256.31 233.9,-281.94"/>
</g>
<!-- r50 -->
<g id="node15" class="node">
<title>r50</title>
<text xml:space="preserve" text-anchor="middle" x="381.2" y="-159.35" font-family="Arial" font-size="10.00">50</text>
</g>
<!-- r50&#45;&gt;transmit -->
<g id="edge15" class="edge">
<title>r50&#45;&gt;transmit</title>
<path fill="none" stroke="black" stroke-width="0.35" stroke-dasharray="1,5" d="M266.08,-163.25C254.28,-163.25 242.3,-163.25 230.5,-163.25"/>
</g>
<!-- r60 -->
<g id="node16" class="node">
<title>r60</title>
<text xml:space="preserve" text-anchor="middle" x="381.2" y="-43.95" font-family="Arial" font-size="10.00">60</text>
</g>
<!-- r60&#45;&gt;success -->
<g id="edge16" class="edge">
<title>r60&#45;&gt;success</title>
<path fill="none" stroke="black" stroke-width="0.35" stroke-dasharray="1,5" d="M266.08,-47.25C236.59,-47.25 205.91,-47.25 179.98,-47.25"/>
</g>
<!-- r70 -->
<g id="node17" class="node">
<title>r70</title>
<text xml:space="preserve" text-anchor="middle" x="913.2" y="-159.35" font-family="Arial" font-size="10.00">70</text>
</g>
<!-- r70&#45;&gt;abort -->
<g id="edge17" class="edge">
<title>r70&#45;&gt;abort</title>
<path fill="none" stroke="black" stroke-width="0.35" stroke-dasharray="1,5" d="M798.08,-163.25C786.28,-163.25 774.3,-163.25 762.5,-163.25"/>
</g>
<!-- r80 -->
<g id="node18" class="node">
<title>r80</title>
<text xml:space="preserve" text-anchor="middle" x="863.2" y="-43.95" font-family="Arial" font-size="10.00">80</text>
</g>
<!-- r80&#45;&gt;failure -->
<g id="edge18" class="edge">
<title>r80&#45;&gt;failure</title>
<path fill="none" stroke="black" stroke-width="0.35" stroke-dasharray="1,5" d="M748.24,-47.25C735.85,-47.25 723.58,-47.25 712.09,-47.25"/>
</g>
</g>
</svg>
