<?xml version="1.0" encoding="UTF-8" standalone="no"?>
<!DOCTYPE svg PUBLIC "-//W3C//DTD SVG 1.1//EN"
 "http://www.w3.org/Graphics/SVG/1.1/DTD/svg11.dtd">
<!-- Generated by graphviz version 15.1.0 (20260618.0150)
 -->
<!-- Title: SystemArchitecture Pages: 1 -->
<svg width="608pt" height="676pt"
 viewBox="0.00 0.00 608.00 676.00" xmlns="http://www.w3.org/2000/svg" xmlns:xlink="http://www.w3.org/1999/xlink">
<g id="graph0" class="graph" transform="scale(1 1) rotate(0) translate(4 671.75)">
<title>SystemArchitecture</title>
<polygon fill="white" stroke="none" points="-4,4 -4,-671.75 604,-671.75 604,4 -4,4"/>
<text xml:space="preserve" text-anchor="middle" x="300" y="-9.45" font-family="Microsoft YaHei" font-size="14.00">图1</text>
<g id="clust1" class="cluster">
<title>cluster_perception</title>
<polygon fill="white" stroke="black" stroke-width="0.6" stroke-dasharray="5,2" points="64,-408.55 64,-602.75 296,-602.75 296,-408.55 64,-408.55"/>
<text xml:space="preserve" text-anchor="middle" x="91.12" y="-418.2" font-family="Microsoft YaHei" font-size="13.00">感知层</text>
</g>
<g id="clust2" class="cluster">
<title>cluster_decision</title>
<polygon fill="white" stroke="black" stroke-width="0.6" stroke-dasharray="5,2" points="64,-167.35 64,-375.55 296,-375.55 296,-167.35 64,-167.35"/>
<text xml:space="preserve" text-anchor="middle" x="91.12" y="-177" font-family="Microsoft YaHei" font-size="13.00">决策层</text>
</g>
<g id="clust3" class="cluster">
<title>cluster_execution</title>
<polygon fill="white" stroke="black" stroke-width="0.6" stroke-dasharray="5,2" points="304,-34.75 304,-266.95 536,-266.95 536,-34.75 304,-34.75"/>
<text xml:space="preserve" text-anchor="middle" x="331.12" y="-44.4" font-family="Microsoft YaHei" font-size="13.00">执行层</text>
</g>
<!-- sensor -->
<g id="node1" class="node">
<title>sensor</title>
<polygon fill="none" stroke="black" stroke-width="0.6" points="288,-594.75 72,-594.75 72,-537.15 288,-537.15 288,-594.75"/>
<text xml:space="preserve" text-anchor="middle" x="180" y="-571.4" font-family="Microsoft YaHei" font-size="14.00">传感器</text>
<text xml:space="preserve" text-anchor="middle" x="180" y="-552.65" font-family="Microsoft YaHei" font-size="14.00">(Sensor)</text>
</g>
<!-- daq -->
<g id="node2" class="node">
<title>daq</title>
<polygon fill="none" stroke="black" stroke-width="0.6" points="288,-500.15 72,-500.15 72,-442.55 288,-442.55 288,-500.15"/>
<text xml:space="preserve" text-anchor="middle" x="180" y="-476.8" font-family="Microsoft YaHei" font-size="14.00">数据采集</text>
<text xml:space="preserve" text-anchor="middle" x="180" y="-458.05" font-family="Microsoft YaHei" font-size="14.00">(DAQ)</text>
</g>
<!-- sensor&#45;&gt;daq -->
<!-- ecu -->
<g id="node3" class="node">
<title>ecu</title>
<polygon fill="none" stroke="black" stroke-width="0.6" points="288,-367.55 72,-367.55 72,-309.95 288,-309.95 288,-367.55"/>
<text xml:space="preserve" text-anchor="middle" x="180" y="-344.2" font-family="Microsoft YaHei" font-size="14.00">域控制器</text>
<text xml:space="preserve" text-anchor="middle" x="180" y="-325.45" font-family="Microsoft YaHei" font-size="14.00">(Domain ECU)</text>
</g>
<!-- sensor&#45;&gt;ecu -->
<g id="edge10" class="edge">
<title>sensor&#45;&gt;ecu</title>
<path fill="none" stroke="black" stroke-width="0.6" d="M230.64,-536.9C262.26,-519.39 297,-500.15 297,-500.15 297,-500.15 297,-408.55 297,-408.55 297,-408.55 266.6,-390.67 236.79,-373.14"/>
<polygon fill="black" stroke="black" stroke-width="0.6" points="238.77,-370.25 228.37,-368.19 235.22,-376.28 238.77,-370.25"/>
<text xml:space="preserve" text-anchor="middle" x="319.5" y="-468.4" font-family="Microsoft YaHei" font-size="11.00">传感数据</text>
</g>
<!-- daq&#45;&gt;ecu -->
<g id="edge11" class="edge">
<title>daq&#45;&gt;ecu</title>
<path fill="none" stroke="black" stroke-width="0.6" d="M180,-442.33C180,-423.74 180,-399.08 180,-378.6"/>
<polygon fill="black" stroke="black" stroke-width="0.6" points="183.5,-378.63 180,-368.63 176.5,-378.63 183.5,-378.63"/>
<text xml:space="preserve" text-anchor="middle" x="202.5" y="-390.1" font-family="Microsoft YaHei" font-size="11.00">采集数据</text>
</g>
<!-- algo -->
<g id="node4" class="node">
<title>algo</title>
<polygon fill="none" stroke="black" stroke-width="0.6" points="288,-258.95 72,-258.95 72,-201.35 288,-201.35 288,-258.95"/>
<text xml:space="preserve" text-anchor="middle" x="180" y="-235.6" font-family="Microsoft YaHei" font-size="14.00">算法</text>
<text xml:space="preserve" text-anchor="middle" x="180" y="-216.85" font-family="Microsoft YaHei" font-size="14.00">(Algorithm)</text>
</g>
<!-- ecu&#45;&gt;algo -->
<!-- motor -->
<g id="node5" class="node">
<title>motor</title>
<polygon fill="none" stroke="black" stroke-width="0.6" points="528,-258.95 312,-258.95 312,-201.35 528,-201.35 528,-258.95"/>
<text xml:space="preserve" text-anchor="middle" x="420" y="-235.6" font-family="Microsoft YaHei" font-size="14.00">电机</text>
<text xml:space="preserve" text-anchor="middle" x="420" y="-216.85" font-family="Microsoft YaHei" font-size="14.00">(Motor)</text>
</g>
<!-- ecu&#45;&gt;motor -->
<g id="edge12" class="edge">
<title>ecu&#45;&gt;motor</title>
<path fill="none" stroke="black" stroke-width="0.6" d="M243.06,-309.74C275.04,-295.54 314.04,-278.21 347.28,-263.45"/>
<polygon fill="black" stroke="black" stroke-width="0.6" points="348.4,-266.78 356.12,-259.52 345.56,-260.39 348.4,-266.78"/>
<text xml:space="preserve" text-anchor="middle" x="336.87" y="-281.5" font-family="Microsoft YaHei" font-size="11.00">驱动指令</text>
</g>
<!-- algo&#45;&gt;ecu -->
<g id="edge13" class="edge">
<title>algo&#45;&gt;ecu</title>
<path fill="none" stroke="black" stroke-width="0.6" d="M183.05,-259.11C184.09,-268.65 185,-276.95 185,-276.95 185,-276.95 185,-291.95 185,-291.95 185,-291.95 184.68,-294.88 184.2,-299.25"/>
<polygon fill="black" stroke="black" stroke-width="0.6" points="180.76,-298.57 183.15,-308.89 187.72,-299.32 180.76,-298.57"/>
<text xml:space="preserve" text-anchor="middle" x="207.5" y="-281.5" font-family="Microsoft YaHei" font-size="11.00">控制策略</text>
</g>
<!-- brake -->
<g id="node6" class="node">
<title>brake</title>
<polygon fill="none" stroke="black" stroke-width="0.6" points="528,-126.35 312,-126.35 312,-68.75 528,-68.75 528,-126.35"/>
<text xml:space="preserve" text-anchor="middle" x="420" y="-103" font-family="Microsoft YaHei" font-size="14.00">制动</text>
<text xml:space="preserve" text-anchor="middle" x="420" y="-84.25" font-family="Microsoft YaHei" font-size="14.00">(Brake)</text>
</g>
<!-- motor&#45;&gt;brake -->
<!-- motor&#45;&gt;brake -->
<g id="edge14" class="edge">
<title>motor&#45;&gt;brake</title>
<path fill="none" stroke="black" stroke-width="0.6" d="M422,-201.16C423.4,-181.74 425,-159.35 425,-159.35 425,-159.35 425,-144.35 425,-144.35 425,-144.35 424.68,-141.42 424.2,-137.05"/>
<polygon fill="black" stroke="black" stroke-width="0.6" points="427.72,-136.98 423.15,-127.41 420.76,-137.73 427.72,-136.98"/>
<text xml:space="preserve" text-anchor="middle" x="436.25" y="-148.9" font-family="Microsoft YaHei" font-size="11.00">协同</text>
</g>
<!-- r10 -->
<g id="node7" class="node">
<title>r10</title>
<text xml:space="preserve" text-anchor="middle" x="180" y="-646.8" font-family="Microsoft YaHei" font-size="11.00">10</text>
</g>
<!-- r10&#45;&gt;sensor -->
<!-- r10&#45;&gt;sensor -->
<g id="edge15" class="edge">
<title>r10&#45;&gt;sensor</title>
<path fill="none" stroke="black" stroke-width="0.35" stroke-dasharray="1,5" d="M185.59,-631.8C186.77,-621.13 187.05,-607.1 186.44,-594.83"/>
</g>
<!-- r20 -->
<g id="node8" class="node">
<title>r20</title>
<text xml:space="preserve" text-anchor="middle" x="27" y="-563" font-family="Microsoft YaHei" font-size="11.00">20</text>
</g>
<!-- r20&#45;&gt;daq -->
<!-- r20&#45;&gt;daq -->
<g id="edge16" class="edge">
<title>r20&#45;&gt;daq</title>
<path fill="none" stroke="black" stroke-width="0.35" stroke-dasharray="1,5" d="M53.98,-549.1C62.22,-542.86 69,-537.15 69,-537.15 69,-537.15 104.63,-517.91 135.61,-500.4"/>
</g>
<!-- r30 -->
<g id="node9" class="node">
<title>r30</title>
<text xml:space="preserve" text-anchor="middle" x="27" y="-468.4" font-family="Microsoft YaHei" font-size="11.00">30</text>
</g>
<!-- r30&#45;&gt;ecu -->
<!-- r30&#45;&gt;ecu -->
<g id="edge17" class="edge">
<title>r30&#45;&gt;ecu</title>
<path fill="none" stroke="black" stroke-width="0.35" stroke-dasharray="1,5" d="M42.47,-453.46C54.79,-435.17 69,-408.55 69,-408.55 69,-408.55 106.97,-386.78 138.59,-367.73"/>
</g>
<!-- r40 -->
<g id="node10" class="node">
<title>r40</title>
<text xml:space="preserve" text-anchor="middle" x="27" y="-335.8" font-family="Microsoft YaHei" font-size="11.00">40</text>
</g>
<!-- r40&#45;&gt;algo -->
<!-- r40&#45;&gt;algo -->
<g id="edge18" class="edge">
<title>r40&#45;&gt;algo</title>
<path fill="none" stroke="black" stroke-width="0.35" stroke-dasharray="1,5" d="M53.98,-321.9C62.22,-315.66 69,-309.95 69,-309.95 69,-309.95 111.86,-281.8 144.43,-259.15"/>
</g>
<!-- r50 -->
<g id="node11" class="node">
<title>r50</title>
<text xml:space="preserve" text-anchor="middle" x="420" y="-335.8" font-family="Microsoft YaHei" font-size="11.00">50</text>
</g>
<!-- r50&#45;&gt;motor -->
<!-- r50&#45;&gt;motor -->
<g id="edge19" class="edge">
<title>r50&#45;&gt;motor</title>
<path fill="none" stroke="black" stroke-width="0.35" stroke-dasharray="1,5" d="M425.06,-321.09C426.93,-304.46 427.25,-278.61 426.01,-258.88"/>
</g>
<!-- r60 -->
<g id="node12" class="node">
<title>r60</title>
<text xml:space="preserve" text-anchor="middle" x="573" y="-227.2" font-family="Microsoft YaHei" font-size="11.00">60</text>
</g>
<!-- r60&#45;&gt;brake -->
<!-- r60&#45;&gt;brake -->
<g id="edge20" class="edge">
<title>r60&#45;&gt;brake</title>
<path fill="none" stroke="black" stroke-width="0.35" stroke-dasharray="1,5" d="M570.44,-212.26C563.21,-193.97 549,-167.35 549,-167.35 549,-167.35 511.03,-145.58 476.21,-126.53"/>
</g>
</g>
</svg>
